<?xml version="1.0" encoding="UTF-8" standalone="no"?>
<!-- Created with Inkscape (http://www.inkscape.org/) -->

<svg
   width="512px"
   height="512px"
   id="svg2"
   version="1.1"
   inkscape:version="1.3 (0e150ed6c4, 2023-07-21)"
   enable-background="new"
   sodipodi:docname="simple.svg"
   inkscape:export-filename="/glry/my/pic/icons/deadbeef3.png"
   inkscape:export-xdpi="720"
   inkscape:export-ydpi="720"
   xmlns:inkscape="http://www.inkscape.org/namespaces/inkscape"
   xmlns:sodipodi="http://sodipodi.sourceforge.net/DTD/sodipodi-0.dtd"
   xmlns:xlink="http://www.w3.org/1999/xlink"
   xmlns="http://www.w3.org/2000/svg"
   xmlns:svg="http://www.w3.org/2000/svg"
   xmlns:rdf="http://www.w3.org/1999/02/22-rdf-syntax-ns#"
   xmlns:cc="http://creativecommons.org/ns#"
   xmlns:dc="http://purl.org/dc/elements/1.1/">
  <defs
     id="defs4">
    <linearGradient
       id="linearGradient3830">
      <stop
         id="stop3832"
         offset="0"
         style="stop-color:#404040;stop-opacity:1" />
      <stop
         id="stop3834"
         offset="1"
         style="stop-color:#000000;stop-opacity:1" />
    </linearGradient>
    <linearGradient
       id="linearGradient5241">
      <stop
         style="stop-color:#606060;stop-opacity:1;"
         offset="0"
         id="stop5243" />
      <stop
         style="stop-color:#202020;stop-opacity:1;"
         offset="1"
         id="stop5245" />
    </linearGradient>
    <linearGradient
       id="linearGradient5211">
      <stop
         style="stop-color:#40406d;stop-opacity:0.73858923;"
         offset="0"
         id="stop5213" />
      <stop
         style="stop-color:#000000;stop-opacity:1"
         offset="0"
         id="stop5215" />
    </linearGradient>
    <linearGradient
       id="linearGradient5203">
      <stop
         id="stop5205"
         offset="0"
         style="stop-color:#40406d;stop-opacity:0.73858923;" />
      <stop
         id="stop5209"
         offset="0"
         style="stop-color:#000000;stop-opacity:1" />
    </linearGradient>
    <linearGradient
       inkscape:collect="always"
       id="linearGradient3894">
      <stop
         style="stop-color:#ffffff;stop-opacity:1;"
         offset="0"
         id="stop3896" />
      <stop
         style="stop-color:#ffffff;stop-opacity:0;"
         offset="1"
         id="stop3898" />
    </linearGradient>
    <linearGradient
       id="linearGradient3881">
      <stop
         style="stop-color:#404040;stop-opacity:1"
         offset="0"
         id="stop3883" />
      <stop
         id="stop3892"
         offset="0.5"
         style="stop-color:#404040;stop-opacity:1" />
      <stop
         style="stop-color:#000000;stop-opacity:1"
         offset="1"
         id="stop3885" />
    </linearGradient>
    <radialGradient
       r="128"
       fy="320"
       fx="160"
       cy="320"
       cx="160"
       gradientTransform="matrix(1.5,0,0,1.5,-80,-224)"
       gradientUnits="userSpaceOnUse"
       id="radialGradient4303"
       xlink:href="#linearGradient4247"
       inkscape:collect="always" />
    <radialGradient
       r="128"
       fy="320"
       fx="160"
       cy="320"
       cx="160"
       gradientTransform="matrix(1.5,0,0,1.5,-80,-224)"
       gradientUnits="userSpaceOnUse"
       id="radialGradient4298"
       xlink:href="#linearGradient4247"
       inkscape:collect="always" />
    <radialGradient
       r="128"
       fy="320"
       fx="160"
       cy="320"
       cx="160"
       gradientTransform="matrix(-1.5,0,0,-1.5,592,736)"
       gradientUnits="userSpaceOnUse"
       id="radialGradient4257"
       xlink:href="#linearGradient4259"
       inkscape:collect="always" />
    <radialGradient
       gradientUnits="userSpaceOnUse"
       gradientTransform="matrix(1.5,0,0,1.5,-80,-224)"
       r="128"
       fy="320"
       fx="160"
       cy="320"
       cx="160"
       id="radialGradient4253"
       xlink:href="#linearGradient4247"
       inkscape:collect="always" />
    <linearGradient
       id="linearGradient3293">
      <stop
         style="stop-color:#48a821;stop-opacity:1;"
         offset="0"
         id="stop3295" />
      <stop
         id="stop3301"
         offset="0.79104477"
         style="stop-color:#48a821;stop-opacity:0.49803922;" />
      <stop
         style="stop-color:#48a821;stop-opacity:0;"
         offset="1"
         id="stop3297" />
    </linearGradient>
    <inkscape:perspective
       id="perspective2756"
       inkscape:persp3d-origin="256 : 170.66667 : 1"
       inkscape:vp_z="512 : 256 : 1"
       inkscape:vp_y="0 : 1000 : 0"
       inkscape:vp_x="0 : 256 : 1"
       sodipodi:type="inkscape:persp3d" />
    <linearGradient
       id="linearGradient4221">
      <stop
         id="stop4223"
         offset="0"
         style="stop-color:#ff0080;stop-opacity:1;" />
      <stop
         id="stop4225"
         offset="1"
         style="stop-color:#ff0080;stop-opacity:0;" />
    </linearGradient>
    <linearGradient
       id="linearGradient4233">
      <stop
         style="stop-color:#ff8000;stop-opacity:1;"
         offset="0"
         id="stop4235" />
      <stop
         style="stop-color:#ff8000;stop-opacity:0;"
         offset="1"
         id="stop4237" />
    </linearGradient>
    <linearGradient
       id="linearGradient4247"
       inkscape:collect="always">
      <stop
         id="stop4249"
         offset="0"
         style="stop-color:#ff8000;stop-opacity:1;" />
      <stop
         id="stop4251"
         offset="1"
         style="stop-color:#ff8000;stop-opacity:0;" />
    </linearGradient>
    <linearGradient
       id="linearGradient4259">
      <stop
         style="stop-color:#ff0080;stop-opacity:1;"
         offset="0"
         id="stop4261" />
      <stop
         style="stop-color:#ff0080;stop-opacity:0;"
         offset="1"
         id="stop4263" />
    </linearGradient>
    <linearGradient
       id="linearGradient3670">
      <stop
         id="stop3672"
         offset="0"
         style="stop-color:#808080;stop-opacity:1;" />
      <stop
         id="stop3674"
         offset="1"
         style="stop-color:#000000;stop-opacity:1;" />
    </linearGradient>
    <radialGradient
       inkscape:collect="always"
       xlink:href="#linearGradient3881"
       id="radialGradient3887"
       cx="256"
       cy="128"
       fx="256"
       fy="128"
       r="256"
       gradientUnits="userSpaceOnUse"
       gradientTransform="matrix(2,0,0,1.5,-256,-64)" />
    <filter
       inkscape:collect="always"
       id="filter5127"
       x="-0.175"
       y="-0.13124999"
       width="1.35"
       height="1.2625">
      <feBlend
         inkscape:collect="always"
         mode="screen"
         in2="BackgroundImage"
         id="feBlend5129" />
    </filter>
    <filter
       inkscape:collect="always"
       id="filter5190">
      <feBlend
         inkscape:collect="always"
         mode="multiply"
         in2="BackgroundImage"
         id="feBlend5192" />
    </filter>
    <filter
       inkscape:collect="always"
       id="filter5237"
       x="0"
       y="0"
       width="1"
       height="1">
      <feBlend
         inkscape:collect="always"
         mode="lighten"
         in2="BackgroundImage"
         id="feBlend5239" />
    </filter>
    <radialGradient
       inkscape:collect="always"
       xlink:href="#linearGradient3830"
       id="radialGradient3824"
       gradientUnits="userSpaceOnUse"
       gradientTransform="matrix(2,0,0,1.5,-256,-64)"
       cx="256"
       cy="128"
       fx="256"
       fy="128"
       r="256" />
    <radialGradient
       inkscape:collect="always"
       xlink:href="#linearGradient3894"
       id="radialGradient3902-0"
       cx="256"
       cy="-42.666668"
       fx="256"
       fy="-42.666668"
       r="256"
       gradientTransform="matrix(1.5,0,0,1.5,-128,64)"
       gradientUnits="userSpaceOnUse" />
  </defs>
  <inkscape:grid
     type="xygrid"
     id="grid2985"
     empspacing="4"
     visible="true"
     enabled="true"
     snapvisiblegridlinesonly="true"
     spacingx="16px"
     spacingy="16px"
     originx="0"
     originy="0"
     units="px" />
  <sodipodi:namedview
     id="base"
     pagecolor="#ffffff"
     bordercolor="#666666"
     borderopacity="1.0"
     inkscape:pageopacity="0.0"
     inkscape:pageshadow="0"
     inkscape:zoom="0.70710678"
     inkscape:cx="-46.669048"
     inkscape:cy="236.17366"
     inkscape:document-units="px"
     inkscape:current-layer="layer1"
     showgrid="true"
     inkscape:window-width="2560"
     inkscape:window-height="1356"
     inkscape:window-x="0"
     inkscape:window-y="0"
     inkscape:window-maximized="0"
     inkscape:showpageshadow="2"
     inkscape:pagecheckerboard="0"
     inkscape:deskcolor="#d1d1d1">
    <inkscape:grid
       type="xygrid"
       id="grid2986"
       empspacing="4"
       visible="true"
       enabled="true"
       snapvisiblegridlinesonly="true"
       spacingx="16px"
       spacingy="16px"
       originx="0"
       originy="0"
       units="px" />
  </sodipodi:namedview>
  <metadata
     id="metadata8">
    <rdf:RDF>
      <cc:Work
         rdf:about="">
        <dc:format>image/svg+xml</dc:format>
        <dc:type
           rdf:resource="http://purl.org/dc/dcmitype/StillImage" />
        <dc:title />
      </cc:Work>
    </rdf:RDF>
  </metadata>
  <g
     inkscape:label="Ebene 1"
     inkscape:groupmode="layer"
     id="layer1"
     style="filter:url(#filter5237)">
    <path
       id="path2988"
       style="fill:#3f3f3f;stroke:none;stroke-width:1px;stroke-linecap:butt;stroke-linejoin:miter;stroke-opacity:1;fill-opacity:1"
       d="M 184 95.935547 L 184 96 L 304 176 L 424 256 L 184 416 L 184 376 L 364 256 L 274 196 L 184 256 L 184 142.25195 C 114.59905 170.31154 67.668839 231.52333 24.355469 250.32617 C 23.503715 252.97092 23 255.01561 23 256 C 23 260.5 31.881156 284.26863 49.8125 309.75 C 67.743844 335.23137 93.024504 364.52451 120.25 391.75 C 147.47549 418.97549 176.76863 444.25616 202.25 462.1875 C 227.73137 480.11884 251.5 489 256 489 C 260.5 489 284.26863 480.11884 309.75 462.1875 C 335.23137 444.25616 364.52451 418.97549 391.75 391.75 C 418.97549 364.52451 444.25614 335.23137 462.1875 309.75 C 480.11886 284.26863 489 260.5 489 256 C 489 255.01585 488.49586 252.97186 487.64453 250.32812 C 430.82945 225.66443 367.84954 127.93555 256 127.93555 C 248.43531 127.93555 241.1113 128.41457 233.98047 129.25586 L 184 95.935547 z M 31.861328 232.52148 C 30.535993 235.21918 29.363669 237.7346 28.339844 240.08398 C 29.349331 237.75636 30.551919 235.19698 31.861328 232.52148 z M 480.13867 232.52148 C 481.44808 235.19698 482.65067 237.75636 483.66016 240.08398 C 482.63633 237.7346 481.46401 235.21918 480.13867 232.52148 z M 27.279297 242.52734 C 26.065709 245.44639 25.11708 247.97254 24.427734 250.08203 C 25.101124 248.00528 26.093645 245.39831 27.279297 242.52734 z M 484.7207 242.52734 C 485.90635 245.39831 486.89888 248.00528 487.57227 250.08203 C 486.88292 247.97254 485.93429 245.44639 484.7207 242.52734 z " />
    <path
       style="fill:url(#radialGradient3824);fill-opacity:1.0;stroke:none"
       d="M 256,0 C 192,0 0,192 0,256 0,320 192,512 256,512 320,512 512,320 512,256 512,192 320,0 256,0 z m 0,16 c 8,0 31.83765,9.83714 57.78125,28.09375 25.9436,18.25661 55.445,43.757498 82.90625,71.21875 27.4613,27.46125 52.9622,56.96265 71.2187,82.90625 C 486.163,224.16235 496,248 496,256 c 0,8 -9.837,31.83765 -28.0938,57.78125 -18.2565,25.9436 -43.7574,55.445 -71.2187,82.90625 -27.46125,27.46125 -56.96265,52.96214 -82.90625,71.21875 C 287.83765,486.16286 264,496 256,496 c -8,0 -31.83765,-9.83714 -57.78125,-28.09375 -25.9436,-18.25661 -55.445,-43.7575 -82.90625,-71.21875 C 87.85125,369.22625 62.35036,339.72485 44.09375,313.78125 25.83714,287.83765 16,264 16,256 c 0,-8 9.83714,-31.83765 28.09375,-57.78125 18.25661,-25.9436 43.7575,-55.445 71.21875,-82.90625 C 142.77375,87.851248 172.27515,62.35036 198.21875,44.09375 224.16235,25.83714 248,16 256,16 z"
       id="path3043"
       inkscape:connector-curvature="0" />
    <path
       id="path2988-2"
       style="fill:#3f3f3f;fill-opacity:0.69764048;stroke:none;stroke-width:1px;stroke-linecap:butt;stroke-linejoin:miter;stroke-opacity:1;filter:url(#filter5237)"
       d="m 256,22.935227 c -4.5,0 -28.26863,8.881159 -53.75,26.812505 -25.48137,17.93134 -54.77451,43.212 -82,70.437498 -27.2255,27.22549 -52.50616,56.51863 -70.4375,82 -14.04995,19.9657 -22.46171,38.73485 -25.48047,48.15234 C 67.65194,231.5466 114.58649,170.31631 184,142.25164 v -6.31641 -39.999998 l 49.98047,33.320308 c 7.13084,-0.84129 14.45483,-1.32031 22.01953,-1.32031 111.86466,0 174.84686,97.75492 231.66797,122.40234 -3.01876,-9.41749 -11.43051,-28.18664 -25.48047,-48.15234 -17.93136,-25.48137 -43.21201,-54.77451 -70.4375,-82 C 364.52451,92.959732 335.23137,67.679072 309.75,49.747732 284.26863,31.816386 260.5,22.935227 256,22.935227 Z" />
  </g>
  <g
     inkscape:groupmode="layer"
     id="layer2"
     inkscape:label="add"
     style="filter:url(#filter5127)" />
  <g
     inkscape:groupmode="layer"
     id="layer3"
     inkscape:label="sub"
     style="filter:url(#filter5190)" />
</svg>
